<mxfile host="app.diagrams.net" modified="2023-03-26T08:26:18.671Z" agent="Mozilla/5.0 (Macintosh; Intel Mac OS X 10_15_7) AppleWebKit/605.1.15 (KHTML, like Gecko) Version/16.1 Safari/605.1.15" version="21.1.1" etag="5mbBki2qwX3r7iaZ-_I_" type="github">
  <diagram name="Strona-1" id="n87vUgD1WO7E9l81-4uw">
    <mxGraphModel>
      <root>
        <mxCell id="0" />
        <mxCell id="1" parent="0" />
      </root>
    </mxGraphModel>
  </diagram>
</mxfile>
